<svg xmlns="http://www.w3.org/2000/svg" viewBox="0 0 1000 1000" width="1000" height="1000">
  <g transform="translate(0,850) scale(1,-1)">
    <path d="M461 748Q395 742 333.0 713.0Q271 684 222 637Q198 615 176.5 585.0Q155 555 141 525Q107 455 101.5 377.0Q96 299 120 225Q150 135 217.5 67.5Q285 0 375 -30Q437 -50 500.5 -50.0Q564 -50 625 -30Q715 0 782.5 67.5Q850 135 880 225Q900 287 900.0 350.5Q900 414 880 475Q851 563 787.5 628.0Q724 693 638.5 725.0Q553 757 461 748ZM561 695Q623 684 678.0 651.5Q733 619 771 571Q826 503 843 419Q847 402 847.5 392.0Q848 382 848.0 350.5Q848 319 847.5 308.5Q847 298 843 281Q825 196 771 130Q734 82 682.5 51.0Q631 20 569 7Q552 3 542.0 2.5Q532 2 500.5 2.0Q469 2 458.5 2.5Q448 3 431 7Q324 30 249.5 106.0Q175 182 155 290Q151 312 152 352Q152 382 153 392Q153 403 157 419Q175 504 229 571Q271 623 329.5 655.5Q388 688 457 698Q473 700 509.0 699.0Q545 698 561 695ZM339 399Q321 394 311.0 381.5Q301 369 301 350Q301 338 304.5 329.5Q308 321 317 314Q334 298 355.5 301.0Q377 304 390.5 321.0Q404 338 399 361Q394 381 376.0 392.0Q358 403 339 399ZM360 373Q367 370 371.0 363.5Q375 357 375 350Q375 340 367.0 332.5Q359 325 349 325Q343 325 336.5 330.0Q330 335 328 341Q323 350 327.5 359.5Q332 369 342 373Q347 375 351.0 375.0Q355 375 360 373ZM490 399Q481 398 472.0 391.0Q463 384 458 376Q446 355 453.0 334.5Q460 314 480.0 304.5Q500 295 521.0 305.0Q542 315 548 338Q554 358 540 379Q532 390 517.5 396.0Q503 402 490 399ZM512 372Q517 369 521.0 362.5Q525 356 525 350Q525 341 517.0 333.0Q509 325 500 325Q494 325 488.5 328.0Q483 331 479.0 337.5Q475 344 475 350Q475 359 483.0 367.0Q491 375 500 375Q506 375 512 372ZM640 399Q618 394 607.5 375.5Q597 357 602.0 337.0Q607 317 627 306Q641 299 656.0 301.0Q671 303 683 314Q692 321 695.5 329.5Q699 338 699.0 349.5Q699 361 695.5 369.5Q692 378 684.0 386.0Q676 394 663.0 398.0Q650 402 640 399ZM663 371Q671 366 673.5 355.5Q676 345 671 337Q663 324 648.0 325.0Q633 326 627.5 339.5Q622 353 629 363Q634 372 644.5 374.0Q655 376 663 371Z" fill="currentColor"/>
  </g>
</svg>
